# xmcd
#
# Track frame offsets:
#	150
#	22841
#	39102
#	55677
#	73091
#	87735
#	108833
#	125585
#
# Disc length: 1905 seconds
#
# Revision: 1
# Processed by: cddbd v1.5.2PL0 Copyright (c) Steve Scherf et al.
# Submitted via: audiograbber 1.83.01
#
DISCID=60076f08
DTITLE=Zucchero - Chocabeck - English Version
DYEAR=2011
DGENRE=Soul
TTITLE0=Life
TTITLE1=Someone else's tears
TTITLE2=Glory
TTITLE3=Devil in my mirror
TTITLE4=Gotta feeling
TTITLE5=Spirit together
TTITLE6=Too late
TTITLE7=In the sky
EXTD=
EXTT0=
EXTT1=
EXTT2=
EXTT3=
EXTT4=
EXTT5=
EXTT6=
EXTT7=
PLAYORDER=
